<?xml version="1.0" standalone="no"?><!DOCTYPE svg PUBLIC "-//W3C//DTD SVG 1.1//EN" "http://www.w3.org/Graphics/SVG/1.1/DTD/svg11.dtd"><svg t="1575005765125" class="icon" viewBox="0 0 1024 1024" version="1.1" xmlns="http://www.w3.org/2000/svg" p-id="893" xmlns:xlink="http://www.w3.org/1999/xlink" width="200" height="200"><defs><style type="text/css"></style></defs><path d="M240.614842 555.026836L177.138969 725.069926l176.106842-61.798665zM461.232204 595.795893c0 92.375457 86.053673 167.204737 192.233841 167.204737s192.233842-74.829281 192.233842-167.204737-86.053673-167.204737-192.233842-167.204738-192.233842 74.829281-192.233841 167.204738z m51.864432 0c0-67.475369 62.959808-122.307169 140.498425-122.307169s140.498425 54.702784 140.498425 122.307169-62.959808 122.307169-140.498425 122.307169-140.498425-54.702784-140.498425-122.307169z" fill="" p-id="894"></path><path d="M534.642308 595.795893a118.823737 103.470833 0 1 0 237.647474 0 118.823737 103.470833 0 1 0-237.647474 0Z" fill="#335883" p-id="895"></path><path d="M466.52186 639.145269c-2.967368 0.129016-6.063752 0.258032-9.160136 0.258032-101.664609 0-184.105833-71.732897-184.105834-160.237873s82.441225-160.237873 184.105834-160.237874c81.925161 0 151.335769 46.574776 175.203729 110.953761 6.4508-0.64508 13.030616-0.774096 19.610432-0.774096 18.06224 0 35.4794 2.193272 51.993449 6.192768-23.351896-99.987401-125.016505-175.332745-246.936626-175.332745-139.079249 0-251.96825 98.052161-251.96825 219.198186 0 121.017009 112.759985 219.198186 251.96825 219.198185 13.675696 0 27.09336-1.032128 40.382008-2.838352-14.062744-16.643064-24.771072-35.737432-31.092856-56.379992z" fill="" p-id="896"></path><path d="M442.782915 580.055941c0-80.505985 65.411113-147.723321 152.754946-163.59229-26.061232-43.22036-78.054681-72.636009-138.047121-72.636008-86.053673 0-155.722313 60.63752-155.722314 135.466801 0 71.732897 64.120953 130.435177 145.143001 135.208769-2.709336-11.224392-4.128512-22.706816-4.128512-34.447272z" fill="#335883" p-id="897"></path><path d="M785.707446 663.013229l60.121457 100.116417-118.694721-18.449288z" fill="" p-id="898"></path><path d="M382.403427 389.112259c-9.418168 6.579816-20.513544 15.739952-29.286632 32.641048-8.644072 16.901096-11.998488 30.060728-7.09588 36.640545 4.902608 6.579816 6.579816-18.70732 21.416656-35.221369 14.83684-16.385032 19.739448-19.481416 29.67368-25.932216 10.063248-6.321784-5.289656-14.707824-14.707824-8.128008z" fill="#FFFFFF" p-id="899"></path></svg>